<svg xmlns="http://www.w3.org/2000/svg" xmlns:xlink="http://www.w3.org/1999/xlink" viewBox="0 0 1400 440"><title>WTFreak-logo3</title><g style="isolation:isolate"><g id="f3f079ed-2c74-42f7-9b0b-97c477dc02a0" data-name="Layer 1"><path d="M337.8,61.7q-15.9,149.6-31.9,301.1l-89.3,3.3Q204.3,295.5,195,204.2c-2.9,26.1-9.5,80.3-20,163.7q-44.4,1.8-88.8,4.1Q70.3,212.6,54.2,49.9l69.5,3.4q3.8,55.5,7.5,110.7c2.5,35.6,4.9,71.1,7.4,106.5,2.6-55.1,9.2-127.3,19.7-215.6,24.8,1.1,49.6,2.2,74.3,3.1,1,9.1,3.6,43,7.8,101.5q4,58.5,7.9,116.7c4.1-74.2,10.7-146.6,20-216.8Z"/><path d="M496,65.7v58.5l-42.4-.6V358.7q-35.9.8-71.6,1.8V122.6l-42.3-.8v-60Q417.9,64.2,496,65.7Z"/><path d="M512.4,66q60.6,1.2,121.2,1.7v57.7l-49.7-.4v54.9h44.2v54.8H583.9V356.4c-23.8.3-47.7.6-71.5,1.1Z"/><path d="M650.9,67.9l50.7.3c33.8.1,56.6,1.5,68.6,4.2s21.7,9.6,29.2,20.7,11.3,29,11.3,53.5c0,22.3-2.6,37.3-8,45s-15.8,12.3-31.4,13.9c14.1,3.6,23.7,8.5,28.5,14.7s7.9,11.8,9.1,16.9,1.8,19.3,1.8,42.5v75.7H744.2V259.9c0-15.4-1.1-24.9-3.4-28.6s-8.5-5.5-18.3-5.4V355.3c-23.9,0-47.7.2-71.6.4Zm71.6,49.5v63.8c8,0,13.7-1.2,16.9-3.5s4.8-9.7,4.8-22.4V139.5c0-9.1-1.5-15-4.6-17.9S730.8,117.4,722.5,117.4Z"/><path d="M838.4,68.1q59.7-.4,119.4-1.2v57.9l-47.8.4v54.7h44.7v55.1H910v63.5l52.5.4v58q-61.9-.9-124.1-1.2Z"/><path d="M1106.8,63.9q20.4,147.3,40.9,296.8l-73.1-1.8-3.9-53-25.6-.3c-1.4,17.5-2.8,35-4.3,52.5l-73.9-1.3q18.1-144.7,36.5-290.7Q1055,65.2,1106.8,63.9Zm-37.9,189.9q-5.6-50-10.9-123.3-10.9,84.3-13.8,123.1Z"/><path d="M1330.3,56.4q-20.4,70.9-41,140.5,22.5,84.2,44.9,170.4l-73.9-2.9q-14.4-66-28.9-131v130c-23.9-.9-47.7-1.6-71.6-2.3V62.4l71.6-2.2V178q15.9-59.1,31.8-119Z"/><path d="M348.4,73.5q-15.9,149.5-31.9,301.1l-89.3,3.3Q214.9,307.3,205.6,216c-2.9,26.1-9.5,80.3-20,163.7q-44.4,1.8-88.8,4.1Q80.9,224.4,64.8,61.7c23.2,1.2,46.3,2.4,69.5,3.4q3.8,55.5,7.6,110.7,3.6,53.4,7.3,106.5c2.6-55.1,9.2-127.3,19.7-215.6,24.8,1.1,49.6,2.2,74.3,3.1q1.5,13.7,7.8,101.6,4,58.4,7.9,116.6c4.1-74.2,10.8-146.6,20-216.8Z"/><path d="M506.7,77.5V136l-42.5-.5v235c-23.9.5-47.7,1.1-71.6,1.8V134.4l-42.3-.8v-60Q428.4,76,506.7,77.5Z"/><path d="M523,77.9q60.6,1,121.2,1.6v57.7l-49.7-.4v54.9h44.2v54.8H594.5V368.2c-23.8.3-47.7.6-71.5,1.1Z"/><path d="M661.5,79.7l50.7.3c33.8.1,56.6,1.5,68.6,4.2S802.5,93.8,810,105s11.3,28.9,11.3,53.4c0,22.3-2.6,37.4-8,45s-15.8,12.3-31.4,13.9q21.3,5.4,28.5,14.7c4.9,6.1,8,11.8,9.1,16.9s1.8,19.3,1.8,42.5v75.7H754.9V271.7c0-15.4-1.2-24.9-3.5-28.5s-8.4-5.5-18.3-5.5V367.1c-23.9,0-47.7.2-71.6.4Zm71.6,49.5V193c8,0,13.7-1.2,16.9-3.5s4.9-9.7,4.9-22.4V151.3c0-9.1-1.6-15-4.7-17.9S741.4,129.2,733.1,129.2Z"/><path d="M849,79.9l119.4-1.2v58l-47.8.3v54.7h44.7v55.1H920.6v63.5l52.5.4v58q-62-.9-124.1-1.2Z"/><path d="M1117.4,75.7q20.4,147.3,40.9,296.8c-24.4-.6-48.7-1.3-73.1-1.8l-3.9-53-25.6-.3c-1.4,17.5-2.8,35-4.3,52.5l-73.9-1.3Q995.7,223.9,1014,77.9,1065.6,77,1117.4,75.7Zm-37.9,189.9q-5.6-50-10.9-123.3-10.9,84.3-13.8,123.1Z"/><path d="M1340.9,68.2q-20.4,70.9-41,140.5,22.5,84.2,44.9,170.4l-73.9-2.9q-14.4-66-28.9-131v130l-71.6-2.3V74.2L1242,72V189.8q15.9-59.1,31.8-119Z"/><image width="5459" height="1468" transform="translate(51 47.4) scale(0.24)" opacity="0.75" xlink:href="WTFreak-logo31.png" style="mix-blend-mode:multiply"/><path d="M342.7,67.4Q326.8,217,310.9,368.5q-44.7,1.5-89.4,3.3-12.1-70.7-21.6-161.9c-2.9,26.1-9.5,80.3-20,163.7-29.6,1.3-59.2,2.6-88.8,4.1Q75.2,218.2,59.1,55.6l69.5,3.5c2.5,36.9,5.1,73.8,7.6,110.6s4.8,71.1,7.3,106.5c2.6-55.1,9.2-127.3,19.8-215.6,24.7,1.2,49.5,2.2,74.2,3.2,1,9,3.6,42.9,7.8,101.5q4,58.3,7.9,116.6c4.1-74.2,10.8-146.6,20-216.8Z" fill="#fcfcfc"/><path d="M501,71.5v58.4l-42.5-.5v235c-23.9.5-47.7,1.1-71.6,1.8V128.3l-42.3-.8v-60Q422.8,69.9,501,71.5Z" fill="#fcfcfc"/><path d="M517.3,71.8q60.6,1,121.2,1.6v57.7l-49.6-.3v54.8h44.2v54.8H588.9V362.1l-71.6,1.1Z" fill="#efb300"/><path d="M655.8,73.6l50.7.3c33.8.1,56.6,1.5,68.6,4.2s21.7,9.6,29.2,20.8,11.3,28.9,11.3,53.4c0,22.3-2.6,37.4-7.9,45s-15.9,12.3-31.5,13.9c14.2,3.6,23.7,8.6,28.6,14.7s7.9,11.8,9.1,16.9,1.7,19.3,1.7,42.5V361H749.2V265.6c0-15.4-1.2-24.9-3.5-28.5s-8.4-5.5-18.3-5.5V361l-71.6.4Zm71.6,49.5v63.8c8.1,0,13.7-1.2,16.9-3.5s4.9-9.7,4.9-22.4V145.3c0-9.1-1.6-15.1-4.7-18S735.7,123.1,727.4,123.1Z" fill="#efb300"/><path d="M843.4,73.8c39.7-.2,79.5-.7,119.3-1.2v58l-47.8.3v54.8l44.7-.2v55.1H914.9V304l52.5.4v58.1q-61.9-1-124-1.3Z" fill="#efb300"/><path d="M1111.7,69.6q20.4,147.3,40.9,296.9c-24.4-.7-48.7-1.4-73.1-1.9-1.3-17.7-2.6-35.3-3.8-53l-25.6-.3c-1.5,17.5-2.9,35-4.3,52.5l-74-1.3Q990,217.8,1008.3,71.8C1042.8,71.2,1077.2,70.5,1111.7,69.6Zm-37.9,189.9q-5.4-50-10.9-123.3c-7.3,56.3-11.9,97.2-13.8,123.2Z" fill="#efb300"/><path d="M1335.3,62.1q-20.5,71-41.1,140.5,22.5,84.2,45,170.4l-73.9-2.9q-14.5-66-29-131v130l-71.5-2.3V68.1l71.5-2.2V183.7q15.9-59.1,31.9-119Z" fill="#efb300"/></g></g></svg>